<?xml version="1.0" encoding="UTF-8" standalone="no"?>
<!-- Created with Inkscape (http://www.inkscape.org/) -->

<svg
   xmlns:dc="http://purl.org/dc/elements/1.1/"
   xmlns:cc="http://creativecommons.org/ns#"
   xmlns:rdf="http://www.w3.org/1999/02/22-rdf-syntax-ns#"
   xmlns:svg="http://www.w3.org/2000/svg"
   xmlns="http://www.w3.org/2000/svg"
   xmlns:sodipodi="http://sodipodi.sourceforge.net/DTD/sodipodi-0.dtd"
   xmlns:inkscape="http://www.inkscape.org/namespaces/inkscape"
   width="3in"
   height="1.0779999in"
   viewBox="0 0 76.200001 27.3812"
   version="1.1"
   id="svg8"
   inkscape:version="0.92.3 (2405546, 2018-03-11)"
   sodipodi:docname="bible.svg">
  <defs
     id="defs2" />
  <sodipodi:namedview
     id="base"
     pagecolor="#ffffff"
     bordercolor="#666666"
     borderopacity="1.0"
     inkscape:pageopacity="0.0"
     inkscape:pageshadow="2"
     inkscape:zoom="2.4138363"
     inkscape:cx="109.34273"
     inkscape:cy="57.592536"
     inkscape:document-units="mm"
     inkscape:current-layer="layer4"
     showgrid="false"
     units="in"
     inkscape:window-width="1366"
     inkscape:window-height="706"
     inkscape:window-x="-8"
     inkscape:window-y="-8"
     inkscape:window-maximized="1"
     inkscape:snap-global="false" />
  <metadata
     id="metadata5">
    <rdf:RDF>
      <cc:Work
         rdf:about="">
        <dc:format>image/svg+xml</dc:format>
        <dc:type
           rdf:resource="http://purl.org/dc/dcmitype/StillImage" />
        <dc:title></dc:title>
      </cc:Work>
    </rdf:RDF>
  </metadata>
  <g
     inkscape:label="Layer 1"
     inkscape:groupmode="layer"
     id="layer1"
     transform="translate(0,-269.61878)"
     style="display:inline" />
  <g
     inkscape:groupmode="layer"
     id="layer3"
     inkscape:label="trace"
     style="display:none"
     transform="translate(0,-2.1589997)" />
  <g
     inkscape:groupmode="layer"
     id="layer4"
     inkscape:label="cross"
     style="display:inline"
     transform="translate(0,-2.1589997)">
    <g
       id="g2391"
       transform="translate(1.0820493e-7,1.0794992)">
      <g
         style="display:inline;fill:#3f51b5;fill-opacity:1"
         transform="matrix(0.28746667,0,0,0.28746667,41.599395,-64.502609)"
         id="g1611">
        <g
           style="fill:#3f51b5;fill-opacity:1"
           transform="matrix(0.26458333,0,0,0.26458333,-9.6842096,210.73912)"
           id="g898">
          <g
             style="fill:#3f51b5;fill-opacity:1"
             id="g896">
            <path
               style="fill:#3f51b5;fill-opacity:1"
               inkscape:connector-curvature="0"
               d="m 86.291,248.744 c 0.14,0.092 0.256,0.211 0.396,0.302 9.941,6.394 21.697,9.786 33.979,9.786 18.995,0 36.313,-8.082 47.512,-22.181 10.468,-13.214 19.988,-28.501 28.501,-45.337 -49.569,8.646 -89.956,29.882 -110.388,57.43 z"
               id="path894" />
          </g>
        </g>
        <g
           style="fill:#3f51b5;fill-opacity:1"
           transform="matrix(0.26458333,0,0,0.26458333,-9.6842096,210.73912)"
           id="g904">
          <g
             style="fill:#3f51b5;fill-opacity:1"
             id="g902">
            <path
               style="fill:#3f51b5;fill-opacity:1"
               inkscape:connector-curvature="0"
               d="m 295.017,191.19 c 8.644,16.987 18.201,32.248 28.604,45.26 11.203,13.981 28.479,22.002 47.404,22.01 h 0.004 c 12.336,0 24.127,-3.415 34.099,-9.879 0.138,-0.091 0.252,-0.207 0.389,-0.299 -20.489,-27.505 -60.924,-48.58 -110.5,-57.092 z"
               id="path900" />
          </g>
        </g>
        <g
           style="fill:#3f51b5;fill-opacity:1"
           transform="matrix(0.26458333,0,0,0.26458333,-9.6842096,210.73912)"
           id="g910">
          <g
             style="fill:#3f51b5;fill-opacity:1"
             id="g908">
            <path
               style="fill:#3f51b5;fill-opacity:1"
               inkscape:connector-curvature="0"
               d="m 462.504,147.495 c -16.014,0 -29.016,13.002 -28.936,29.016 0,13.16 8.8,24.339 20.85,27.905 -5.946,15.856 -13.794,30.046 -23.704,42.255 -4.915,6.025 -10.703,11.099 -16.966,15.221 -31.948,20.691 -77.613,15.538 -102.506,-15.538 -14.587,-18.234 -26.161,-38.37 -35.278,-57.794 -11.575,-24.576 -19.106,-48.121 -23.783,-65.483 12.922,-2.933 22.515,-14.508 22.515,-28.381 0,-16.014 -13.081,-28.936 -29.094,-28.936 -16.014,0 -28.937,13.001 -28.937,29.016 0,13.873 9.671,25.369 22.594,28.302 -4.597,17.362 -12.129,40.987 -23.545,65.563 -9.037,19.423 -20.612,39.559 -35.119,57.872 -24.814,31.235 -70.478,36.468 -102.506,15.855 -6.263,-4.043 -12.051,-9.116 -16.966,-15.141 -9.989,-12.13 -17.837,-26.4 -23.942,-42.255 12.13,-3.567 20.93,-14.746 20.85,-27.905 0,-16.014 -13.001,-29.016 -29.015,-28.937 C 13.001,148.13 0,161.132 0,177.146 c 0.079,16.014 13.081,29.016 29.095,29.016 1.189,0 2.299,-0.08 3.409,-0.238 l 31.949,190.265 h -12.05 v 29.571 h 386.953 v -29.571 l -11.575,-0.475 31.394,-190.424 c 1.11,0.158 2.22,0.238 3.409,0.238 16.014,-0.08 29.015,-13.081 28.936,-29.095 0,-16.015 -13.002,-29.017 -29.016,-28.938 z M 245.875,366.512 c -21.915,0 -39.682,-26.425 -39.682,-59.02 0,-32.598 17.767,-59.022 39.682,-59.022 21.916,0 39.682,26.424 39.682,59.022 0,32.595 -17.766,59.02 -39.682,59.02 z"
               id="path906" />
          </g>
        </g>
        <g
           style="fill:#3f51b5;fill-opacity:1"
           transform="matrix(0.26458333,0,0,0.26458333,-9.6842096,210.73912)"
           id="g912" />
        <g
           style="fill:#3f51b5;fill-opacity:1"
           transform="matrix(0.26458333,0,0,0.26458333,-9.6842096,210.73912)"
           id="g914" />
        <g
           style="fill:#3f51b5;fill-opacity:1"
           transform="matrix(0.26458333,0,0,0.26458333,-9.6842096,210.73912)"
           id="g916" />
        <g
           style="fill:#3f51b5;fill-opacity:1"
           transform="matrix(0.26458333,0,0,0.26458333,-9.6842096,210.73912)"
           id="g918" />
        <g
           style="fill:#3f51b5;fill-opacity:1"
           transform="matrix(0.26458333,0,0,0.26458333,-9.6842096,210.73912)"
           id="g920" />
        <g
           style="fill:#3f51b5;fill-opacity:1"
           transform="matrix(0.26458333,0,0,0.26458333,-9.6842096,210.73912)"
           id="g922" />
        <g
           style="fill:#3f51b5;fill-opacity:1"
           transform="matrix(0.26458333,0,0,0.26458333,-9.6842096,210.73912)"
           id="g924" />
        <g
           style="fill:#3f51b5;fill-opacity:1"
           transform="matrix(0.26458333,0,0,0.26458333,-9.6842096,210.73912)"
           id="g926" />
        <g
           style="fill:#3f51b5;fill-opacity:1"
           transform="matrix(0.26458333,0,0,0.26458333,-9.6842096,210.73912)"
           id="g928" />
        <g
           style="fill:#3f51b5;fill-opacity:1"
           transform="matrix(0.26458333,0,0,0.26458333,-9.6842096,210.73912)"
           id="g930" />
        <g
           style="fill:#3f51b5;fill-opacity:1"
           transform="matrix(0.26458333,0,0,0.26458333,-9.6842096,210.73912)"
           id="g932" />
        <g
           style="fill:#3f51b5;fill-opacity:1"
           transform="matrix(0.26458333,0,0,0.26458333,-9.6842096,210.73912)"
           id="g934" />
        <g
           style="fill:#3f51b5;fill-opacity:1"
           transform="matrix(0.26458333,0,0,0.26458333,-9.6842096,210.73912)"
           id="g936" />
        <g
           style="fill:#3f51b5;fill-opacity:1"
           transform="matrix(0.26458333,0,0,0.26458333,-9.6842096,210.73912)"
           id="g938" />
        <g
           style="fill:#3f51b5;fill-opacity:1"
           transform="matrix(0.26458333,0,0,0.26458333,-9.6842096,210.73912)"
           id="g940" />
      </g>
      <g
         style="display:inline;fill:#3f51b5;fill-opacity:1"
         id="g1665"
         transform="matrix(0.03206288,0,0,0.03206288,32.615961,15.46561)">
        <polygon
           style="fill:#3f51b5;fill-opacity:1"
           id="polygon1661"
           points="92.695,181.758 120.979,210.043 220.682,110.341 120.979,10.639 92.695,38.924 164.113,110.341 " />
        <polygon
           style="fill:#3f51b5;fill-opacity:1"
           id="polygon1663"
           points="28.284,10.639 0,38.924 71.417,110.341 0,181.758 28.284,210.043 127.986,110.341 " />
      </g>
      <g
         transform="translate(0.06562907,-0.00395261)"
         id="g1616">
        <path
           style="display:inline;fill:#3f51b5;fill-opacity:1;stroke-width:0.436984"
           d="m 11.259766,20.228516 c -0.474914,0 -0.578125,5.973916 -0.578125,33.375 v 33.375 l 4.15039,0.523437 c 12.984426,1.634399 25.37348,7.70794 34.632813,16.953127 L 49.298828,93.210938 c -1.770641,-3.543497 -0.229066,-5.05903 0.125,-6.09961 l 0.03516,-1.675781 -2.326172,-6.970703 0.126954,-4.523438 -0.910157,-1.019531 C 44.284872,71.691601 43.641543,70.750557 43.699219,67.763672 42.760566,65.693247 43.177082,64.299969 43.779297,63 c 0.21476,-2.254866 -0.293552,-4.077162 0.787109,-6.851562 0.05481,-1.354583 -0.371781,-2.365726 0.955078,-4.628907 0.339803,-1.452283 0.454277,-3.015942 1.144532,-4.292969 l -1.921875,-6.871093 c -1.772523,-0.867515 -3.417606,-1.62471 -5.382813,-2.824219 -4.026755,-1.957493 -7.219367,-4.342494 -9.375,-7.363281 l -12.585937,-0.03516 0.05273,-8.878906 c -2.682823,-0.574963 -5.24133,-1.02539 -6.193359,-1.02539 z m 88.861324,0 c -0.318161,0 -2.431756,0.316769 -4.697262,0.705078 -0.558793,0.09576 -1.111733,0.212148 -1.666016,0.324218 l -0.326171,8.800782 -13.634766,0.146484 c -2.084905,3.267099 -5.138655,4.93663 -8.382813,6.464844 -1.703701,1.345927 -3.461232,2.470886 -5.359374,3.039062 l -0.910157,3.091797 -0.517578,5.253907 -0.06445,4.49414 0.548828,2.144531 c 0.417135,1.202797 1.124688,2.346281 0.625,3.732422 0.488432,1.443742 -0.143096,2.619529 -0.605469,3.873047 -0.163222,2.987263 -0.04037,6.117998 -1.332031,8.541016 0.938136,4.923666 0.297359,9.460486 -1.34375,15.140625 1.474095,1.608718 3.711255,6.131111 -0.689453,9.132812 l 0.0078,9.751949 0.580078,-0.56445 c 4.996592,-4.850115 6.600133,-6.09809 11.732422,-9.130858 6.73553,-3.980145 14.660704,-6.665015 22.740234,-7.701172 l 3.873048,-0.496094 V 53.601562 c 0,-27.398437 -0.10321,-33.373046 -0.57813,-33.373046 z m 6.04102,14.960937 -0.11328,27.630859 c -0.10565,25.958552 -0.15854,27.675908 -0.89649,28.34375 -0.54804,0.495988 -2.23147,0.837946 -5.568356,1.13086 -5.47415,0.480529 -7.76176,0.930787 -12.601562,2.480469 -6.48164,2.075338 -14.060359,6.490539 -19.056641,11.101559 -1.081512,0.99818 -1.656947,1.72194 -1.279297,1.60743 0.377651,-0.11441 2.28996,-0.71479 4.25,-1.33399 7.859248,-2.48273 11.865302,-3.06093 21.28125,-3.07227 8.416156,-0.01 13.161056,0.48737 18.025386,1.89063 l 1.42188,0.41016 V 71.123047 36.865234 l -2.73242,-0.83789 z M 4.7636719,35.257812 c -0.043398,6.86e-4 -0.089514,0.01173 -0.1386719,0.02734 -0.4470229,0.141884 -1.677309,0.507114 -2.7324219,0.8125 l -1.91796873,0.556641 -0.11132812,34.333984 -0.11132813,34.333993 3.34570308,-0.79883 c 11.6154978,-2.76741 27.1772168,-2.0525 38.1816408,1.7539 2.037793,0.70489 3.777688,1.29934 3.867187,1.31446 0.533492,0.10783 -1.470987,-1.7748 -4.220703,-3.96485 C 32.654681,97.039274 23.239223,93.311596 12.210938,92.261719 8.7871546,91.935772 6.7004739,91.535012 6.2011719,91.105469 5.4878053,90.491825 5.4375,88.587037 5.4375,62.738281 5.4375,37.598482 5.414635,35.247532 4.7636719,35.257812 Z"
           id="path825"
           inkscape:connector-curvature="0"
           transform="scale(0.26458333)" />
        <path
           style="display:inline;fill:#3f51b5;fill-opacity:1;stroke:none;stroke-width:2.13148022;stroke-miterlimit:4;stroke-dasharray:none;stroke-opacity:1;paint-order:stroke fill markers"
           d="m 14.144501,25.90011 v -1.628401 l -0.138406,-0.10306 c -0.121042,-0.0901 -0.133923,-0.12988 -0.102738,-0.31667 0.01956,-0.11746 0.0818,-0.28925 0.138215,-0.38174 0.127167,-0.20854 0.143971,-0.9733 0.02751,-1.25205 -0.0415,-0.0993 -0.170333,-0.4973 -0.286305,-0.88445 l -0.210859,-0.70386 0.0077,-0.94425 c 0.0063,-0.78968 -0.0049,-0.93947 -0.06878,-0.91494 -0.148052,0.0568 -0.389279,-0.0317 -0.450102,-0.16523 -0.03305,-0.0725 -0.12738,-0.15755 -0.209612,-0.18878 -0.198639,-0.0757 -0.231727,-0.1388 -0.232719,-0.44432 -4.23e-4,-0.14177 -0.03942,-0.35438 -0.08657,-0.47224 -0.07636,-0.19079 -0.07686,-0.23151 -0.0046,-0.37125 0.05482,-0.10604 0.09403,-0.42743 0.120832,-0.99044 0.02804,-0.58904 0.06161,-0.85548 0.114404,-0.90828 0.04199,-0.0421 0.07275,-0.17766 0.07018,-0.30967 -0.0094,-0.47605 0.01209,-0.61271 0.120113,-0.7642 0.06065,-0.0854 0.158659,-0.39163 0.217771,-0.68094 0.05909,-0.28929 0.13065,-0.56932 0.158991,-0.6223 0.136163,-0.25444 -0.02242,-1.10933 -0.439033,-2.36666 -0.190508,-0.57494 -0.266405,-0.6552101 -0.848577,-0.89757 -0.232764,-0.097 -0.548163,-0.25776 -0.700892,-0.3574899 -0.152707,-0.0996 -0.452499,-0.2752802 -0.666162,-0.39019 C 9.6596656,8.295169 9.4624742,8.137299 8.727748,7.2824589 L 8.4113495,6.9143491 H 7.0514211 5.6915736 v -0.5726102 -0.57262 h 0.9822145 c 0.9078,0 0.9890842,-0.009 1.0736263,-0.1067699 0.090789,-0.10604 0.092876,-0.10604 0.2857762,0.00101 0.1880155,0.1045498 0.2897134,0.1076399 3.1391804,0.0933 L 14.117246,5.74266 14.131425,3.4112901 14.145615,1.07994 h 0.572028 0.572028 v 2.3449999 2.3449802 h 2.893049 c 2.604594,0 2.910448,-0.009 3.067578,-0.0917 0.242004,-0.1272599 0.733678,-0.1291799 0.825636,-0.003 0.06104,0.0833 0.170946,0.0956 0.870153,0.0956 H 23.74637 L 23.7308,6.3298101 23.71539,6.88879 22.183674,6.902789 20.651957,6.916788 20.157519,7.4775081 c -0.271943,0.3083745 -0.588837,0.6231345 -0.704205,0.6993946 -0.426491,0.2819201 -0.542551,0.3451799 -0.788029,0.4294499 -0.138073,0.0472 -0.420295,0.2108401 -0.627151,0.36312 -0.42097,0.3099202 -0.588544,0.40264 -1.018655,0.5635702 -0.381737,0.1428398 -0.445108,0.2196999 -0.559218,0.6783702 -0.05182,0.20829 -0.13009,0.46462 -0.173957,0.5696 -0.239626,0.57349 -0.390087,3.03631 -0.211596,3.4635 0.04819,0.11536 0.08764,0.28486 0.08764,0.37672 0,0.092 0.05289,0.27625 0.117539,0.40979 0.08827,0.18238 0.103302,0.26559 0.06037,0.33435 -0.03501,0.0561 -0.03832,0.12534 -0.0083,0.17846 0.03174,0.0569 0.01087,0.20741 -0.05966,0.43272 -0.07016,0.22385 -0.108589,0.50077 -0.109049,0.7856 -7.94e-4,0.49728 -0.06676,0.91724 -0.229031,1.45816 -0.116317,0.38779 -0.116176,0.36359 -0.01135,1.89548 0.02944,0.4305 0.01243,0.54485 -0.218645,1.46617 -0.139789,0.55747 -0.25058,1.12645 -0.25058,1.28694 0,0.25357 0.02601,0.32058 0.219563,0.56543 0.296901,0.37562 0.351599,0.5298 0.24543,0.69182 -0.110553,0.16874 -0.2368,0.22878 -0.45136,0.21463 l -0.177232,-0.0123 v 1.600009 1.60003 H 14.717383 14.14477 Z M 12.834442,8.820799 c -0.110334,-0.2061501 -0.08198,-0.6151901 0.06029,-0.8698301 0.0725,-0.1297199 0.1686,-0.2544498 0.213598,-0.27714 0.306871,-0.15455 0.690318,-0.2732 0.836504,-0.2585799 0.169687,0.0157 0.172643,0.012301 0.188963,-0.24071 l 0.01662,-0.2579301 -2.429755,-0.013999 c -1.528403,-0.01 -2.4233001,0.003 -2.4123538,0.0374 0.00949,0.0286 0.2488483,0.2089902 0.5317345,0.4007101 0.2828803,0.19166 0.6370283,0.4643999 0.7870013,0.60603 0.19269,0.18195 0.350291,0.277 0.537264,0.3240601 0.145532,0.0365 0.464554,0.1671598 0.708953,0.2900699 0.367959,0.1850699 0.756886,0.3303301 0.977989,0.3652501 0.02355,0.003 0.0161,-0.0435 -0.01663,-0.1045501 z m 3.015711,0.009 c 0.112239,-0.0572 0.448615,-0.13321 0.758302,-0.17102 0.467008,-0.0572 0.600929,-0.0967 0.832315,-0.2442501 0.151657,-0.0968 0.431196,-0.2544099 0.621173,-0.3501401 0.189974,-0.0957 0.447658,-0.2668198 0.572615,-0.3801798 0.124963,-0.11337 0.439978,-0.3260301 0.700045,-0.4726601 0.260065,-0.1465001 0.464881,-0.2794601 0.455145,-0.29528 -0.0097,-0.0157 -1.026226,-0.022 -2.258861,-0.013999 l -2.241157,0.013999 v 0.908 c 0,0.7683301 0.01383,0.92329 0.09028,1.0076801 0.114335,0.1263899 0.217552,0.12567 0.470168,-0.003 z"
           id="path850"
           inkscape:connector-curvature="0" />
      </g>
    </g>
  </g>
</svg>
